PathFileType  4	(X/Y/Z) C:\Users\antoi\Documents\MyRepositories\mobilecap\ResultsAnalysis
DataRate	CameraRate	NumFrames	NumMarkers	Units	OrigDataRate	OrigDataStartFrame	OrigNumFrames
100.0	100.0	4	51	mm	100.0	961	1280
Frame#	Time	r_knee			r_shank_antsup			r_ankle			r_calc			r_5meta			r_toe			L_knee			L_shank_antsup			L_ankle			L_calc			L_5meta			L_toe			r_sh2			r_sh3			r_sh4			L_sh2			L_sh3			r_thigh1			r_thigh2			r_thigh3			r_thigh4			r_thigh5			L_thigh1			L_thigh2			L_thigh3			L_thigh4			r.ASIS			r.PSIS			L.ASIS			L.PSIS			C7			R_Shoulder			L_Shoulder			R_Sternum			L_Sternum			R_humerus			R_elbow_med			R_elbow_lat			R_forearm			R_wrist_radius			R_wrist_ulna			L_humerus			L_elbow_med			L_elbow_lat			L_forearm			L_wrist_radius			L_wrist_ulna			R_HJC			L_HJC			R_HJC_reg			L_HJC_reg			
		X1	Y1	Z1	X2	Y2	Z2	X3	Y3	Z3	X4	Y4	Z4	X5	Y5	Z5	X6	Y6	Z6	X7	Y7	Z7	X8	Y8	Z8	X9	Y9	Z9	X10	Y10	Z10	X11	Y11	Z11	X12	Y12	Z12	X13	Y13	Z13	X14	Y14	Z14	X15	Y15	Z15	X16	Y16	Z16	X17	Y17	Z17	X18	Y18	Z18	X19	Y19	Z19	X20	Y20	Z20	X21	Y21	Z21	X22	Y22	Z22	X23	Y23	Z23	X24	Y24	Z24	X25	Y25	Z25	X26	Y26	Z26	X27	Y27	Z27	X28	Y28	Z28	X29	Y29	Z29	X30	Y30	Z30	X31	Y31	Z31	X32	Y32	Z32	X33	Y33	Z33	X34	Y34	Z34	X35	Y35	Z35	X36	Y36	Z36	X37	Y37	Z37	X38	Y38	Z38	X39	Y39	Z39	X40	Y40	Z40	X41	Y41	Z41	X42	Y42	Z42	X43	Y43	Z43	X44	Y44	Z44	X45	Y45	Z45	X46	Y46	Z46	X47	Y47	Z47	X48	Y48	Z48	X49	Y49	Z49	X50	Y50	Z50	X51	Y51	Z51	

961	9.60000000	-207.88123	458.15597	-330.29004	-174.27019	344.02322	-347.02616	-287.64175	88.34338	-381.55142	-334.26962	52.39151	-437.54574	-184.89486	38.73707	-334.05469	-143.77934	57.16287	-372.62857	-229.75147	474.30857	-753.34816	-184.87350	365.48994	-746.74553	-297.15790	96.08801	-808.51497	-337.52698	52.88591	-763.34819	-182.96644	35.89337	-850.27038	-138.00761	57.20952	-803.97494	-201.23481	235.40860	-366.89535	-234.03639	348.56356	-301.02512	-273.12896	246.51448	-328.77063	-248.29507	406.41879	-794.73060	-275.05106	289.96132	-825.42712	-230.34393	768.26969	-316.88250	-190.08301	666.48614	-315.21285	-228.14083	623.64961	-280.61877	-330.39997	724.53548	-289.74904	-283.75424	620.37013	-285.05646	-240.85727	761.89688	-692.01947	-193.64185	640.44841	-726.77931	-350.21109	738.44865	-710.49982	-298.09460	610.33699	-742.55644	-217.05376	877.21467	-358.16662	-367.83117	980.66820	-435.82693	-200.23060	874.76467	-598.61548	-361.37693	981.38817	-551.51268	-214.67562	1385.66799	-444.65407	-171.88128	1345.27730	-288.76241	-134.69689	1365.78817	-596.45122	-97.58347	1321.27614	-416.83736	-89.32799	1320.66806	-455.42702	-189.00513	1220.26824	-221.42670	-313.46112	1046.41943	-267.74660	-279.50910	1049.08854	-196.18654	-213.42178	935.41209	-201.65629	-166.87644	846.13152	-227.95211	-190.85029	831.15280	-203.96191	-156.35276	1226.23404	-679.93623	-285.07058	1062.84729	-659.84144	-263.79548	1079.32041	-730.62509	-211.32135	989.06705	-749.82044	-170.70501	869.88780	-736.94104	-188.47837	861.30662	-760.77866	-324.46431	841.70437	-389.41390	-308.03205	835.04417	-577.96128	-305.35516	836.73217	-397.04878	-296.49366	837.72041	-555.88598	
962	9.61000000	-210.24730	459.00715	-330.60105	-176.39992	344.94155	-347.24261	-287.76598	87.83199	-382.11297	-334.32083	52.27601	-437.65014	-184.94349	38.77259	-334.05782	-143.83236	57.25445	-372.59493	-231.85642	474.61550	-752.05944	-187.05381	366.25091	-745.64080	-297.42111	96.12402	-808.74162	-337.55578	52.84734	-763.49696	-183.01685	35.86290	-850.29441	-138.04716	57.23053	-803.96475	-202.73145	236.10309	-367.04683	-236.26553	349.16916	-301.12590	-274.67917	246.67407	-329.03870	-250.48992	406.95833	-793.84980	-276.49615	290.46945	-824.72530	-227.98914	769.59660	-317.25641	-189.15963	667.21040	-315.89219	-227.77925	624.97620	-281.10824	-328.42914	727.57872	-289.76258	-283.38833	622.58397	-285.33041	-238.08855	762.60208	-691.39188	-192.99962	640.45658	-725.90851	-347.63680	741.13622	-710.24217	-297.82373	612.28402	-742.31691	-214.28916	881.15160	-358.46481	-366.21668	982.90081	-436.62983	-197.36117	878.25363	-598.91078	-359.65682	983.55648	-552.15195	-218.39165	1390.05879	-445.22926	-175.31112	1350.29489	-289.31464	-138.57531	1371.16464	-597.16118	-100.73777	1326.82470	-417.29346	-92.54658	1326.62684	-455.75781	-191.99233	1225.36812	-221.67434	-315.84830	1051.23569	-268.49119	-282.80061	1054.19462	-196.48106	-218.50872	939.37872	-199.72989	-173.37597	848.93291	-223.71908	-198.05928	834.63921	-200.28190	-160.00941	1231.37784	-680.38023	-286.42925	1067.57452	-658.18144	-267.43240	1083.90182	-729.27544	-216.86907	993.54326	-751.42308	-177.80219	873.43503	-741.56731	-195.95046	865.54417	-765.52580	-321.41920	844.52463	-389.73528	-304.79320	837.56835	-578.25305	-302.21417	839.48179	-397.39845	-293.19295	840.38036	-556.23925	
963	9.62000000	-212.52843	459.77097	-331.07981	-178.48096	345.74330	-347.49957	-287.91767	87.52146	-382.30558	-334.41394	52.15212	-437.76055	-184.99585	38.81353	-334.09994	-143.90219	57.38396	-372.54108	-233.82512	474.98889	-750.93470	-189.09924	366.99043	-744.43008	-297.68984	96.22663	-808.97610	-337.57274	52.80983	-763.56585	-183.03905	35.84930	-850.27408	-138.08411	57.24835	-803.93358	-204.25731	236.83119	-367.03430	-238.36250	349.61737	-301.39304	-276.26549	246.94695	-329.17157	-252.57071	407.37034	-792.88930	-277.82726	290.96433	-824.22904	-225.51307	770.63988	-317.85833	-188.21556	667.88481	-316.70026	-227.28567	626.27336	-281.50577	-326.37278	730.46224	-289.88636	-282.94559	624.66451	-285.61210	-235.77619	762.89570	-691.68508	-192.27975	640.23978	-724.78466	-345.00941	743.67390	-709.96264	-297.50298	613.85563	-741.59283	-211.84200	884.87494	-358.69502	-364.31310	984.97126	-436.89865	-194.79625	881.55821	-599.29048	-358.01771	985.44534	-552.76704	-222.15533	1394.13317	-445.76939	-178.67333	1354.93692	-289.93934	-142.45792	1376.17595	-597.74438	-103.89534	1332.06355	-417.64703	-95.69978	1332.67175	-455.82744	-194.87640	1230.04253	-222.01459	-318.16668	1055.64057	-269.25055	-285.92931	1058.98966	-196.76615	-223.40721	943.16449	-197.97763	-179.82896	851.58003	-219.96368	-205.18692	838.29808	-196.57472	-163.61540	1236.24875	-680.75138	-288.02351	1071.80613	-656.71455	-270.53794	1088.14605	-727.97088	-222.21780	997.82190	-752.98519	-184.64959	876.89618	-746.21663	-203.50209	869.39939	-769.70437	-318.48386	847.16140	-389.90626	-301.85022	839.93285	-578.41383	-299.17273	842.31800	-397.33401	-290.53365	842.97017	-556.31561	
964	9.63000000	-214.72852	460.50041	-331.56748	-180.59778	346.48166	-347.78108	-288.13616	87.44577	-382.13266	-334.51325	52.06809	-437.77007	-185.03533	38.84582	-334.17666	-143.98614	57.54944	-372.52191	-235.69122	475.45272	-750.03885	-190.99802	367.71016	-743.29902	-297.91803	96.35682	-809.12797	-337.60990	52.78892	-763.59324	-183.02999	35.85626	-850.22217	-138.07593	57.27064	-803.91598	-205.62416	237.40465	-366.95919	-240.40990	350.01484	-301.70936	-277.69013	247.34871	-329.13569	-254.50171	407.76926	-791.96379	-279.01520	291.28638	-823.79590	-223.13883	771.67483	-318.57584	-187.25583	668.49254	-317.47271	-226.69238	627.53296	-281.96544	-324.25308	733.13928	-290.00254	-282.43854	626.64528	-285.87943	-233.30782	762.98268	-691.43326	-191.47473	639.69817	-723.30315	-342.39303	746.06376	-710.01277	-297.00259	615.32724	-741.02632	-209.61231	888.36014	-358.89613	-363.17133	987.63839	-437.18846	-192.20200	884.77959	-599.44244	-356.44041	987.04935	-553.53450	-226.00408	1397.88821	-446.26082	-181.98534	1359.26349	-290.64249	-146.89824	1381.08578	-597.99068	-106.98370	1336.99817	-418.14837	-98.91175	1338.31380	-455.85646	-197.67266	1234.30686	-222.53375	-320.42510	1059.73129	-269.88935	-288.85504	1063.41004	-197.14375	-228.16671	946.80116	-196.17335	-186.04286	854.00571	-216.56225	-212.07319	841.86457	-193.03218	-167.18799	1240.86594	-681.24541	-289.92269	1075.42299	-655.38694	-273.22543	1091.99975	-726.98401	-227.31752	1001.90702	-754.65675	-191.41156	880.11249	-750.88458	-211.61770	873.03618	-772.97949	-315.99146	849.87687	-390.05916	-299.07280	842.26628	-578.52578	-296.92921	846.07908	-397.48106	-287.73662	845.27832	-556.39891	
